<?xml version="1.0" encoding="UTF-8"?>
<svg id="Layer_1" data-name="Layer 1" xmlns="http://www.w3.org/2000/svg" version="1.1" viewBox="0 0 553.4 148.1">
  <defs>
    <style>
      .cls-1 {
        isolation: isolate;
      }

      .cls-2 {
        fill: #d00181;
        stroke-width: 0px;
      }
    </style>
  </defs>
  <g class="cls-1">
    <g class="cls-1">
      <g class="cls-1">
        <g class="cls-1">
          <path class="cls-2" d="M4.5,110.4l-2.7-22.9h1.2c5.1,14.8,11.6,24.1,20.3,24.1s9.2-4.9,9.2-9.9c0-16.7-26.9-27.1-26.9-48.3s5.9-19,20.6-19,11.8,1.2,16.8,4.1v16.5h-1.2c-2.8-10.9-8.7-18.6-17.5-18.6s-8.9,3.9-8.9,9.6c0,16.9,26.9,26.7,26.9,48.1s-6.4,19.7-21,19.7-11.9-1.3-16.8-3.4Z"/>
          <path class="cls-2" d="M49.7,84.6c0-16.8,9.8-30,24-30s23.1,12.2,23.1,28.8-9.8,30.1-24,30.1-23.1-12.3-23.1-28.9ZM74,111.9c6.8,0,10-11.6,9.7-27.1-.3-17.7-4.5-28.7-11.1-28.7s-10.1,11.7-9.8,27.1c.4,17.7,4.5,28.7,11.2,28.7Z"/>
          <path class="cls-2" d="M135.7,32.6c4.5,0,9.6.8,14.3,2.2v10.3c-7.5-4.2-15.7-6-22.6-6s-13.4,3.4-13.4,9.8,1.5,4.7,3.2,6.5h32.7v57.6h-12.7v-54h-17.8v54h-12.7c0,0,0-54,0-54h-4.9v-.8l4.9-2.8c6.1-16.8,15.8-22.8,29-22.8Z"/>
          <path class="cls-2" d="M174.7,61.7c-7.6,0-11.9,6.5-13.1,14.8h-1.4c1.1-10.7,6.7-22.1,20.2-22.1s14.5,5.6,16.1,18.8l4.7,39.8h-12.6l-2.6-26.5h-.4c-2.4,15.5-7.6,26.9-17.4,26.9s-9.9-3.8-9.9-10.4,6.2-14,17.1-22c3.9-2.9,7-5.1,9.3-6.8v-.2c-.8-7.4-3.8-12.3-10-12.3ZM173.8,102.5c7.5,0,11.3-12.3,11.5-22.5l-.4-4.1-3.1,2.2c-9.7,7-13.5,11.8-13.5,17.6s2.2,6.8,5.5,6.8Z"/>
          <path class="cls-2" d="M228.6,74.4c0-22.4,11.7-40.2,28.4-40.2s28.1,17.6,28.1,39.4-11.6,40.2-28.5,40.2-28-17.5-28-39.4ZM257.4,111.7c9.4,0,13.3-17.1,13.3-34.9s-4.2-40.4-14.4-40.4-13.3,17.1-13.3,34.9,4.3,40.4,14.4,40.4Z"/>
          <path class="cls-2" d="M296.2,34h12.7v79h-12.7V34Z"/>
          <path class="cls-2" d="M328.6,34.6c4.3,0,7.1,3.1,7.1,7.1s-2.8,7.2-7.1,7.2-7.1-3.1-7.1-7.2,2.9-7.1,7.1-7.1ZM322.3,55.4h12.7v57.6h-12.7v-57.6Z"/>
          <path class="cls-2" d="M341.9,55.4h13.4l12.8,43.5,12.8-43.5h3.4l-18.9,58h-4l-19.5-58Z"/>
          <path class="cls-2" d="M386.8,85.8c0-18.5,9.3-31.1,21.2-31.1s17.5,7.5,18.7,21.4h-28.4v2.5c0,16.7,4.4,26.1,13.1,26.1s12.4-7,14.6-18.7h1.4c-2.5,14.1-7.7,27.5-20.5,27.5s-20.1-10.8-20.1-27.7ZM415.9,73.9c-.4-9.8-3.3-17.3-8.5-17.3s-8.3,6.6-9,17.3h17.5Z"/>
          <path class="cls-2" d="M442.9,34.6c4.3,0,7.1,3.1,7.1,7.1s-2.8,7.2-7.1,7.2-7.1-3.1-7.1-7.2,2.9-7.1,7.1-7.1ZM436.6,55.4h12.7v57.6h-12.7v-57.6Z"/>
          <path class="cls-2" d="M462.6,55.4h12.7v22.8c3.9-16.1,11.5-23.4,19.8-23.4v11.5c-1.7-.4-3.1-.6-4.6-.6-11.7,0-15.2,10.2-15.2,24.2v23.1h-12.7v-57.6Z"/>
          <path class="cls-2" d="M513.4,61.7c-7.6,0-11.9,6.5-13.1,14.8h-1.4c1.1-10.7,6.7-22.1,20.2-22.1s14.5,5.6,16.1,18.8l4.7,39.8h-12.6l-2.6-26.5h-.4c-2.4,15.5-7.6,26.9-17.4,26.9s-9.9-3.8-9.9-10.4,6.2-14,17.1-22c3.9-2.9,7-5.1,9.3-6.8v-.2c-.8-7.4-3.8-12.3-10-12.3ZM512.5,102.5c7.5,0,11.3-12.3,11.5-22.5l-.4-4.1-3.1,2.2c-9.7,7-13.5,11.8-13.5,17.6s2.2,6.8,5.5,6.8Z"/>
        </g>
      </g>
    </g>
  </g>
</svg>